<?xml version="1.0" encoding="UTF-8"?>
<svg version="1.1" xmlns="http://www.w3.org/2000/svg" width="43" height="42">
<path d="M0 0 C14.19 0 28.38 0 43 0 C43 13.86 43 27.72 43 42 C28.81 42 14.62 42 0 42 C0 28.14 0 14.28 0 0 Z " fill="#FBFDFE" transform="translate(0,0)"/>
<path d="M0 0 C3.74154854 1.29910046 6.1419639 4.17656722 8.91210938 6.91650391 C9.52248047 7.48175781 10.13285156 8.04701172 10.76171875 8.62939453 C15.06701138 12.8667344 15.06701138 12.8667344 15.22070312 16.93212891 C13.98680209 20.01043253 12.94286514 21.26856943 10.34960938 23.29150391 C7.81153425 25.32286885 5.54073076 27.27394857 3.41210938 29.72900391 C1.09960938 31.72900391 1.09960938 31.72900391 -1.11523438 31.74853516 C-5.23547826 30.24028319 -7.7388992 27.5100975 -10.77539062 24.41650391 C-11.68417969 23.54348633 -11.68417969 23.54348633 -12.61132812 22.65283203 C-13.17851562 22.08371094 -13.74570313 21.51458984 -14.33007812 20.92822266 C-14.84812012 20.41090576 -15.36616211 19.89358887 -15.89990234 19.3605957 C-16.90039062 17.72900391 -16.90039062 17.72900391 -16.64746094 15.6496582 C-14.75390218 10.78147953 -5.70488456 -0.81351771 0 0 Z " fill="#1F63F5" transform="translate(22.900390625,4.27099609375)"/>
<path d="M0 0 C4.34586828 -0.39507893 6.32003497 -0.45331002 10 2 C10.51493064 5.97232205 10.58122939 8.13891941 8.3125 11.5 C6 13 6 13 3.4375 12.875 C1 12 1 12 -2 10 C-2.39507893 5.65413172 -2.45331002 3.67996503 0 0 Z " fill="#F0F7FD" transform="translate(20,18)"/>
<path d="M0 0 C4.66351797 1.54276501 7.7249172 4.95732859 10.5859375 8.85546875 C10.9609375 12.10546875 10.9609375 12.10546875 9.5859375 14.85546875 C6.5234375 17.23046875 6.5234375 17.23046875 3.5859375 18.85546875 C3.2559375 14.89546875 2.9259375 10.93546875 2.5859375 6.85546875 C0.2759375 6.85546875 -2.0340625 6.85546875 -4.4140625 6.85546875 C-4.0840625 5.53546875 -3.7540625 4.21546875 -3.4140625 2.85546875 C-4.0740625 2.52546875 -4.7340625 2.19546875 -5.4140625 1.85546875 C-2.4140625 -0.14453125 -2.4140625 -0.14453125 0 0 Z " fill="#1661F4" transform="translate(27.4140625,9.14453125)"/>
<path d="M0 0 C2.0625 0.4375 2.0625 0.4375 4 1 C5.05413453 12.12697564 5.05413453 12.12697564 2.6171875 16.45703125 C-0.0503133 19.29197257 -1.80159077 20.91829028 -5.75 21.1875 C-8.33179245 19.82488732 -9.48524923 18.47143546 -11 16 C-10.01 15.01 -9.02 14.02 -8 13 C-7.01 13.66 -6.02 14.32 -5 15 C-1.88695186 14.84239972 -1.88695186 14.84239972 1 14 C2.4783226 11.04335481 2.06032783 8.25770263 2 5 C-0.31 4.34 -2.62 3.68 -5 3 C-4.360625 2.690625 -3.72125 2.38125 -3.0625 2.0625 C-1.06389179 1.1654837 -1.06389179 1.1654837 0 0 Z " fill="#2C6BEF" transform="translate(27,15)"/>
<path d="M0 0 C0.66 0.33 1.32 0.66 2 1 C1.67 2.65 1.34 4.3 1 6 C1.66 6 2.32 6 3 6 C3 7.98 3 9.96 3 12 C2.34 11.67 1.68 11.34 1 11 C1 10.34 1 9.68 1 9 C-1.97 8.505 -1.97 8.505 -5 8 C-4.64950425 4.75791433 -4.43778819 3.38472296 -1.9375 1.1875 C-1.298125 0.795625 -0.65875 0.40375 0 0 Z " fill="#155CF9" transform="translate(13,15)"/>
<path d="M0 0 C0 2 0 4 0 6 C-1.6796875 7.46484375 -1.6796875 7.46484375 -3.875 8.9375 C-6.95963659 11.01050846 -8.57830469 12.535553 -10 16 C-10.76953125 14.3203125 -10.76953125 14.3203125 -11 12 C-9.19921875 9.4921875 -9.19921875 9.4921875 -6.6875 6.875 C-5.86636719 6.00617187 -5.04523437 5.13734375 -4.19921875 4.2421875 C-2.80597604 2.82172335 -1.40691927 1.40691927 0 0 Z " fill="#3576F4" transform="translate(17,7)"/>
<path d="M0 0 C1.32 0.33 2.64 0.66 4 1 C4 4.96 4 8.92 4 13 C3.34 12.67 2.68 12.34 2 12 C2 9.69 2 7.38 2 5 C-0.31 4.34 -2.62 3.68 -5 3 C-4.360625 2.690625 -3.72125 2.38125 -3.0625 2.0625 C-1.06389179 1.1654837 -1.06389179 1.1654837 0 0 Z " fill="#4078EF" transform="translate(27,15)"/>
<path d="M0 0 C1.98 0 3.96 0 6 0 C6.99 1.98 7.98 3.96 9 6 C8.34 6.66 7.68 7.32 7 8 C5.83035398 6.8572081 4.66435444 5.71068285 3.5 4.5625 C2.8503125 3.92441406 2.200625 3.28632813 1.53125 2.62890625 C0 1 0 1 0 0 Z " fill="#2969F5" transform="translate(8,23)"/>
<path d="M0 0 C0.66 0.33 1.32 0.66 2 1 C-1.465 3.97 -1.465 3.97 -5 7 C-5.66 5.68 -6.32 4.36 -7 3 C-4.69631264 1.93347808 -2.35981813 0.93578995 0 0 Z " fill="#225FD5" transform="translate(29,28)"/>
<path d="M0 0 C1.125 3.75 1.125 3.75 0 6 C-1.65 6 -3.3 6 -5 6 C-5 5.34 -5 4.68 -5 4 C-3.35 3.34 -1.7 2.68 0 2 C0 1.34 0 0.68 0 0 Z " fill="#246CF7" transform="translate(37,18)"/>
</svg>
